<svg width="65" height="65" viewBox="0 0 65 65" fill="none" xmlns="http://www.w3.org/2000/svg">
<rect x="0.0654297" y="0.967773" width="64" height="64" rx="32" fill="#DCFCE7"/>
<path d="M42.7318 34.3011C42.7318 40.9677 38.0651 44.3011 32.5184 46.2344C32.228 46.3328 31.9125 46.3281 31.6251 46.2211C26.0651 44.3011 21.3984 40.9677 21.3984 34.3011V24.9677C21.3984 24.6141 21.5389 24.275 21.789 24.0249C22.039 23.7749 22.3781 23.6344 22.7318 23.6344C25.3984 23.6344 28.7318 22.0344 31.0518 20.0077C31.3342 19.7664 31.6936 19.6338 32.0651 19.6338C32.4366 19.6338 32.796 19.7664 33.0784 20.0077C35.4118 22.0477 38.7318 23.6344 41.3984 23.6344C41.7521 23.6344 42.0912 23.7749 42.3412 24.0249C42.5913 24.275 42.7318 24.6141 42.7318 24.9677V34.3011Z" stroke="#16A34A" stroke-width="2.66667" stroke-linecap="round" stroke-linejoin="round"/>
</svg>
