<svg width="17" height="17" viewBox="0 0 17 17" fill="none" xmlns="http://www.w3.org/2000/svg">
<path d="M1.44011 9.20001C1.38455 9.05034 1.38455 8.88569 1.44011 8.73601C1.98124 7.42392 2.89978 6.30204 4.07929 5.51261C5.25879 4.72319 6.64614 4.30176 8.06544 4.30176C9.48475 4.30176 10.8721 4.72319 12.0516 5.51261C13.2311 6.30204 14.1496 7.42392 14.6908 8.73601C14.7463 8.88569 14.7463 9.05034 14.6908 9.20001C14.1496 10.5121 13.2311 11.634 12.0516 12.4234C10.8721 13.2128 9.48475 13.6343 8.06544 13.6343C6.64614 13.6343 5.25879 13.2128 4.07929 12.4234C2.89978 11.634 1.98124 10.5121 1.44011 9.20001Z" stroke="#4B5563" stroke-width="1.33333" stroke-linecap="round" stroke-linejoin="round"/>
<path d="M8.06543 10.9678C9.17 10.9678 10.0654 10.0723 10.0654 8.96777C10.0654 7.8632 9.17 6.96777 8.06543 6.96777C6.96086 6.96777 6.06543 7.8632 6.06543 8.96777C6.06543 10.0723 6.96086 10.9678 8.06543 10.9678Z" stroke="#4B5563" stroke-width="1.33333" stroke-linecap="round" stroke-linejoin="round"/>
</svg>
